<svg version="1.1" xmlns="http://www.w3.org/2000/svg" viewBox="-26.354030038418617 -40.84896390442199 62.14642124919358 76.81166105318654" fill="none" stroke="black" stroke-width="0.6%" vector-effect="non-scaling-stroke">
    <path d="M -25.35403 26.72311 L -25.35403 23.84741 L -9.43836 32.087 L 21.48821 12.67647 L 5.57254 4.43688 L -25.35403 23.84741" />
    <path d="M -9.43836 34.9627 L -9.43836 32.087" />
    <path d="M -25.35403 26.72311 L -9.43836 34.9627 L 21.48821 15.55217 L 21.48821 12.67647" />
    <path d="M -15.79944 -29.5219 L -15.79944 -29.93272 L 18.99295 -11.9206 L 34.79239 -21.83684 L 0 -39.84896 L -15.79944 -29.93272" />
    <path d="M 18.99295 -11.50978 L 18.99295 -11.9206" />
    <path d="M -15.79944 -29.5219 L 18.99295 -11.50978 L 34.79239 -21.42603 L 34.79239 -21.83684" />
    <path d="M -6.33426 6.7311 L -6.33426 -24.62175" />
    <path d="M -4.4836 7.68919 L -4.4836 -23.66366" />
    <path d="M -6.33426 6.7311 L -4.4836 7.68919 L -2.80281 6.63427 L -2.80281 -22.79351" />
    <path d="M 21.79576 21.29409 L 21.79576 -13.26892" />
    <path d="M 23.64642 22.25219 L 23.64642 -14.43045" />
    <path d="M 21.79576 21.29409 L 23.64642 22.25219 L 25.32721 21.19727 L 25.32721 -15.48537" />
</svg>